<svg xmlns="http://www.w3.org/2000/svg" xmlns:xlink="http://www.w3.org/1999/xlink" xmlns:a="http://ns.adobe.com/AdobeSVGViewerExtensions/3.0/" version="1.1" x="0px" y="0px" viewBox="-7.213 -6.322 100 125" overflow="visible" enable-background="new -7.213 -6.322 100 100" xml:space="preserve"><path d="M39.125,38.459c0.973,1.094,2.016,0.889,2.016,0.889s0.86,0.205,1.832-0.889c0.973-1.094,3.913-5.062,3.913-5.062  s1.026-1.983,0-2.872s-2.212-1.778-2.645-1.847h-3.101H37.88c-0.433,0.068-1.778,0.958-2.805,1.847  c-1.025,0.889,0.046,2.872,0.046,2.872S38.154,37.365,39.125,38.459z"/><path d="M81.225,48.704c-1.416-1.75-14.918-13.698-15.251-16.939s-2.693-14.33-2.953-15.58c-0.258-1.239-2.234-15.813-21.234-16.156  V0.012c0,0,0.915-0.004,1.987-0.009c-0.003-0.001,0.056-0.001,0.052-0.002c-0.354,0.002-0.68,0.003-1.072,0.005  c-0.454,0.002-0.932,0.005-1.439,0.007c-0.512-0.002-0.999-0.005-1.453-0.007C39.371,0.004,38.917,0.002,38.486,0  c-0.013,0.001,0.074,0.001,0.062,0.002c1.207,0.006,2.238,0.01,2.238,0.01v0.018c-18,0.363-20.904,14.918-21.161,16.155  c-0.26,1.25-2.54,12.339-2.872,15.58C16.419,35.006,2.894,46.954,1.478,48.704s-2.262,2.942-0.429,4.358  c1.833,1.418,5.91-1.197,7.993-2.613c2.083-1.418,3.664-1.062,3.664-1.062l0.002-0.217c-0.052,4.067,2.419,11.508,3.517,13.508  h-0.002l1.159,3.011c-3.896,1.224-6.471,3.421-6.471,5.8c0,0.07,0.018,0.194,0.022,0.265c-0.095,0.443-0.147,0.927-0.147,1.397  c0,3.59,2.91,6.527,6.5,6.527h16c2.3,0,4.317-1.196,5.471-3h5.181c1.155,1.799,3.159,3,5.456,3h16c3.59,0,6.5-2.91,6.5-6.5  c0-0.471-0.053-0.928-0.147-1.371c0.005-0.07,0.022-0.141,0.022-0.212c0-2.379-2.574-4.469-6.471-5.692l1.159-2.797h-0.001  c1.098-2.688,3.569-9.654,3.518-13.722l0.003,0.003c0,0,1.584-0.355,3.667,1.062c2.083,1.416,6.166,4.031,7.999,2.613  C83.476,51.646,82.641,50.454,81.225,48.704z M63.207,63.542c-0.094,0.535-0.221,1.132-0.387,1.749  c-1.695-0.333-3.539-0.529-5.489-0.529c-7.191,0-13.137,2.49-14.237,5.748c-0.432,0.663-0.699,1.416-0.699,2.23  c0,0.696,0.195,1.348,0.521,1.938h-3.31c0.321-0.59,0.514-1.243,0.514-1.938c0-0.607-0.145-1.184-0.394-1.715  c-0.612-3.507-6.809-6.264-14.376-6.264c-1.95,0-3.794,0.196-5.489,0.529c-0.166-0.617-0.293-1.214-0.387-1.749  c-0.665-4.563-2.277-21.871,9.812-30.614c0.141-0.102,0.27-0.196,0.401-0.293l-0.286-0.294l0.839-0.856  c-2.668-1.148-4.537-3.801-4.537-6.89c0-4.142,3.357-7.5,7.5-7.5c3.035,0,5.644,1.807,6.823,4.399l1.274-1.301l1.299,1.301  c1.18-2.593,3.842-4.399,6.877-4.399c4.143,0,7.5,3.358,7.5,7.5c0,3.089-1.869,5.741-4.537,6.89l0.839,0.856l-0.286,0.294  c0.132,0.097,0.261,0.191,0.401,0.293C65.484,41.671,63.872,58.979,63.207,63.542z"/><ellipse cx="44.019" cy="23.637" rx="1.625" ry="3.125"/><ellipse cx="38.662" cy="23.637" rx="1.625" ry="3.125"/><path d="M53.745,38.898c0,0,0.001-2.341-3.856-0.481l-6.102,2.989v1.387c0-1.055-0.866-2.115-1.897-2.115h-1.487  c-1.031,0-1.615,1.061-1.615,2.115v-1.387l-6.348-2.989c-3.858-1.859-4.039,0.481-4.039,0.481s-0.324-0.631-0.85,5.053  c-0.527,5.683,3.806,5.894,3.806,5.894l7.431-3.333v-1.794c0,1.054,0.584,1.96,1.615,1.96h1.487c1.031,0,1.897-0.906,1.897-1.96  v1.794l7.186,3.333c0,0,4.146-0.211,3.62-5.894C54.066,38.268,53.745,38.898,53.745,38.898z"/><text x="-7.213" y="108.678" fill="#000000" font-size="5px" font-weight="bold" font-family="'Helvetica Neue', Helvetica, Arial-Unicode, Arial, Sans-serif">Created by Hayden Kerrisk</text><text x="-7.213" y="113.678" fill="#000000" font-size="5px" font-weight="bold" font-family="'Helvetica Neue', Helvetica, Arial-Unicode, Arial, Sans-serif">from the Noun Project</text></svg>